<svg id="visual" viewBox="0 0 1920 1080" width="1920" height="1080" xmlns="http://www.w3.org/2000/svg" xmlns:xlink="http://www.w3.org/1999/xlink" version="1.1"><rect x="0" y="0" width="1920" height="1080" fill="#202020"></rect><defs><linearGradient id="grad1_0" x1="43.8%" y1="0%" x2="100%" y2="100%"><stop offset="14.444444444444446%" stop-color="#202020" stop-opacity="1"></stop><stop offset="85.55555555555554%" stop-color="#202020" stop-opacity="1"></stop></linearGradient></defs><defs><linearGradient id="grad2_0" x1="0%" y1="0%" x2="56.3%" y2="100%"><stop offset="14.444444444444446%" stop-color="#202020" stop-opacity="1"></stop><stop offset="85.55555555555554%" stop-color="#202020" stop-opacity="1"></stop></linearGradient></defs><g transform="translate(1920, 0)"><path d="M0 324C-27.2 300.5 -54.4 276.9 -86.5 266.3C-118.7 255.7 -155.8 257.9 -173.4 238.7C-191 219.4 -189.2 178.7 -212.8 154.6C-236.4 130.5 -285.4 123.1 -308.1 100.1C-330.9 77.1 -327.5 38.6 -324 0L0 0Z" fill="#00c9ff"></path></g><g transform="translate(0, 1080)"><path d="M0 -324C27.1 -295.1 54.2 -266.2 81.3 -250.1C108.4 -234.1 135.5 -230.9 159.3 -219.2C183.1 -207.6 203.5 -187.4 230.6 -167.5C257.7 -147.6 291.5 -128 308.1 -100.1C324.8 -72.2 324.4 -36.1 324 0L0 0Z" fill="#00c9ff"></path></g></svg>